<?xml version="1.0" standalone="no"?>
<!DOCTYPE svg PUBLIC "-//W3C//DTD SVG 20010904//EN"
 "http://www.w3.org/TR/2001/REC-SVG-20010904/DTD/svg10.dtd">
<svg version="1.0" xmlns="http://www.w3.org/2000/svg"
 width="256.000000pt" height="256.000000pt" viewBox="0 0 256.000000 256.000000"
 preserveAspectRatio="xMidYMid meet">
<metadata>
Created by potrace 1.11, written by Peter Selinger 2001-2013
</metadata>
<g transform="translate(0.000000,256.000000) scale(0.100000,-0.100000)"
fill="#000000" stroke="none">
<path d="M417 2430 c-101 -32 -179 -94 -232 -184 -56 -95 -55 -83 -55 -959 l0
-808 26 -66 c13 -37 31 -74 39 -83 8 -9 15 -20 15 -23 0 -4 21 -27 47 -51 51
-49 137 -95 193 -105 51 -8 1639 -6 1678 2 143 31 274 172 301 322 5 28 8 412
6 855 -2 849 0 810 -46 905 -40 85 -138 164 -242 197 -55 17 -112 18 -865 17
-758 0 -811 -1 -865 -19z"/>
</g>
</svg>
